<mxfile host="app.diagrams.net" modified="2023-09-12T07:19:48.170Z" agent="Mozilla/5.0 (Macintosh; Intel Mac OS X 10_15_7) AppleWebKit/537.36 (KHTML, like Gecko) Chrome/113.0.0.0 Safari/537.36 Edg/113.0.1774.57" version="21.7.2" etag="HAokclH2ZRQjhdvIvVhP" type="github">
  <diagram name="Page-1" id="Jhoe67UzJKt8Q7MgGjmD">
    <mxGraphModel>
      <root>
        <mxCell id="0" />
        <mxCell id="1" parent="0" />
      </root>
    </mxGraphModel>
  </diagram>
</mxfile>
